<svg width="377" height="310" viewBox="0 0 377 310" fill="none" xmlns="http://www.w3.org/2000/svg">
<path d="M359.961 259.495C364.44 252.863 367.897 245.766 370.743 238.261C373.736 230.348 375.233 222.185 376.366 213.875C377.455 205.905 376.956 197.901 376.185 190.033C375.165 179.58 372.274 169.66 366.605 160.409C363.839 155.897 360.46 151.906 356.81 148.811C350.189 143.199 342.65 138.54 334.68 134.708C325.859 130.468 316.722 126.42 309.579 119.595C300.521 110.957 296.576 99.5627 294.841 87.432C293.934 81.0265 293.39 74.5417 293.175 68.0795C292.732 54.8831 288.798 42.9678 281.554 31.9255C278.402 27.1185 274.922 22.4363 270.795 18.8084C263.777 12.6524 256.465 6.60967 247.078 3.83208C239.108 1.4853 231.093 -0.600735 222.794 0.158852C211.23 1.22454 200.12 3.51464 189.701 9.65936C179.611 15.6 171.096 23.0598 162.877 31.1205C156.188 37.6734 147.572 39.6234 138.661 40.9158C135.283 41.4033 131.949 41.6754 128.56 41.6754C115.783 41.664 102.983 41.2899 90.2288 41.7774C77.3158 42.2649 64.3122 40.7117 51.4899 43.3193C44.9031 44.657 38.9057 47.5934 33.3392 51.1192C28.4756 54.1916 23.4646 57.3886 20.4716 62.6604C20.1428 63.2272 20.0068 63.9075 19.7687 64.531C21.1291 63.8961 22.4556 63.2272 23.4646 62.0595C32.5683 51.4366 44.6763 46.6184 58.0428 44.3169C60.3442 43.9201 62.7363 43.8408 65.4799 44.6117C32.6023 59.8374 9.39521 81.4006 10.0301 121.16C7.53592 117.464 7.13912 113.825 6.77634 110.333C5.1778 95.2773 9.53123 81.7407 17.728 69.2472C18.6576 67.8301 20.1088 66.5377 19.7687 64.5197C15.88 66.9005 13.9187 70.7891 11.9234 74.621C7.44521 83.2372 4.84901 92.4543 4.31616 102.114C3.54524 116.149 8.94173 127.94 17.5466 138.823C21.9794 144.424 25.2785 150.75 26.6956 158.3C27.6366 163.3 29.904 168.175 29.5186 173.447C28.5776 186.133 24.4509 197.549 15.6079 207.016C4.28216 219.147 -1.42042 233.397 0.302826 250.12C0.665614 253.6 2.32086 256.956 3.37521 260.368C3.18248 257.817 4.95106 258.01 6.61761 258.01C15.4492 258.01 24.2808 258.044 33.1238 257.954C34.6656 257.942 36.4229 258.566 37.7267 257.103C32.8177 253.759 31.5819 248.907 32.9651 243.544C34.0761 239.247 37.0691 235.948 41.6833 235.574C45.5606 235.257 46.3655 233.533 45.9347 230.223C45.7987 229.169 45.9801 228.069 46.0141 226.992C46.7396 225.484 48.1341 226.074 49.2452 226.062C56.0248 226.006 62.8157 226.244 69.5953 225.949C73.0531 225.802 73.6653 227.139 73.6086 230.166C73.4499 238.306 73.6199 246.446 73.5406 254.586C73.5179 256.865 73.9941 258.078 76.6469 258.056C82.4515 257.999 88.2562 258.226 94.0608 258.339C89.7073 256.004 85.1158 253.702 85.2859 247.796C85.4446 242.07 86.669 236.515 89.1178 231.277C94.1515 220.473 100.557 210.394 105.976 199.794C86.1815 195.067 78.0414 175.907 88.721 159.139C91.5213 154.786 95.6933 151.634 98.9131 147.621C105.035 139.98 105.239 135.807 99.3552 128.246C96.2262 124.64 97.2919 120.854 99.3552 117.407C104.015 109.596 111.747 107.17 120.181 106.195C128.82 104.392 132.743 99.8801 133.559 90.9125C133.99 86.1962 134.5 81.48 134.976 76.7638C134.954 73.0792 136.564 69.9275 138.412 66.9345C145.1 56.1189 155.247 50.8811 167.514 49.1239C172.491 48.5343 177.468 48.1829 182.366 49.7247C183.171 49.8381 183.987 49.8608 184.769 50.0648C192.66 52.1622 197.603 57.7627 201.571 64.429C204.178 68.8278 207.659 71.662 212.783 73.0112C217.488 74.2356 221.649 76.9451 224.891 80.7771C230.82 88.0102 230.424 96.3656 223.803 103.689C218.429 111.229 218.112 115.004 222.51 121.636C224.29 124.323 226.218 126.93 228.621 129.13C233.734 134.311 234.562 139.186 231.263 145.909C229.664 149.163 227.941 152.337 227.159 155.92C227.147 158.221 228.383 160.024 229.517 161.871C232.566 166.837 232.986 172.018 230.673 177.392C231.263 178.605 231.761 179.863 232.453 181.02C241.171 195.407 248.45 210.576 256.669 225.235C258.098 224.441 257.927 222.933 258.222 221.652C260.898 210.009 263.63 198.388 266.17 186.722C266.963 183.049 268.46 181.156 272.598 180.941C299.852 179.546 327.107 178.016 354.338 176.281C358.85 175.998 361.911 177.347 364.054 181.156C366.832 183.027 365.947 185.691 365.471 188.174C362.297 204.805 359.089 221.425 355.835 238.046C354.542 244.632 353.137 251.197 351.776 257.772C353.284 258.736 354.882 257.659 356.424 258.01C357.694 258.271 359.542 257.194 359.961 259.495ZM292.449 87.1599C290.703 85.4593 290.204 84.1102 289.887 82.6477C288.175 74.7684 287.71 66.651 285.034 58.9305C282.132 50.5637 278.289 42.7297 272.87 35.7801C266.385 27.4586 258.086 21.3933 248.631 16.6203C235.559 10.0335 221.943 8.89977 207.999 12.0742C194.984 15.0445 183.647 21.9941 172.219 28.615C171.403 29.0912 170.552 30.7351 169.532 29.59C168.41 28.3543 169.951 27.4473 170.7 26.5857C176.663 19.704 184.157 14.7724 192.115 10.657C198.838 7.18786 205.958 4.96579 213.577 3.60534C224.245 1.68936 234.494 2.15418 244.731 5.22654C252.361 7.52798 258.789 12.0061 265.172 16.6544C275.625 24.2729 282.62 34.7597 286.916 46.3916C291.587 59.0778 291.565 72.8865 292.449 87.1599Z" fill="#FFE8C6"/>
<path d="M359.961 259.495C359.531 257.194 357.694 258.282 356.413 257.999C354.871 257.647 353.261 258.724 351.765 257.761C350.506 259.144 348.93 259.575 347.071 259.733C321.653 261.797 296.236 263.985 270.818 266.026C265.569 266.445 260.331 267.647 255.002 266.694C247.996 265.663 241.012 264.506 233.995 263.622C229.471 263.055 225.05 261.547 220.402 262.069C221.161 266.105 219.291 266.921 215.515 267.012C212.035 267.103 209.098 265.663 205.867 265.175C203.124 265.617 201.48 264.03 200.063 262.024C198.736 262.035 197.41 262.035 196.083 262.046C195.142 264.869 192.796 263.157 191.106 263.588C188.907 265.924 185.064 265.946 182.955 263.622C181.243 262.681 179.577 261.593 177.479 261.785C176.039 263.157 174.35 263.758 172.366 263.645C166.494 263.305 160.655 263.203 154.76 262.466C145.69 261.321 136.428 261.173 127.267 260.697C116.168 260.119 105.148 258.758 94.0608 258.328C88.2562 258.214 82.4516 257.988 76.647 258.044C73.9941 258.067 73.5179 256.865 73.5406 254.575C73.62 246.435 73.4612 238.295 73.6086 230.155C73.6653 227.128 73.0531 225.79 69.5952 225.938C62.827 226.232 56.0361 225.994 49.2451 226.051C48.1341 226.062 46.7396 225.473 46.0141 226.981C46.2408 226.969 46.4676 226.981 46.6943 227.003C48.5989 226.969 50.4922 226.935 52.3855 226.901C56.7163 226.89 61.0471 226.89 65.3779 226.879C65.9674 226.867 66.5682 226.867 67.1578 226.856C72.7243 226.799 72.7243 226.799 72.7357 232.128C72.7583 240.925 72.747 249.734 72.849 258.532C72.8717 260.742 72.4976 262.556 70.3775 263.633C69.5386 265.232 68.0421 265.221 66.5342 265.209C63.1785 265.164 59.8113 265.13 56.4555 265.096C49.1318 265.425 46.9891 264.155 45.7987 258.804C42.919 259.087 40.2435 258.407 37.7153 257.081C36.4115 258.543 34.6543 257.92 33.1124 257.931C24.2808 258.022 15.4492 257.988 6.60624 257.988C4.93968 257.988 3.15977 257.795 3.36384 260.346C3.6586 260.618 3.96471 260.89 4.25948 261.162C5.99406 259.87 7.70595 261.015 9.31582 261.377C14.4515 262.534 19.4966 264.042 24.6209 265.232C35.924 267.851 47.2498 270.39 58.5189 273.089C68.9944 275.594 79.4926 278.134 89.9568 280.707C100.704 283.36 111.418 286.126 122.234 288.496C132.596 290.763 142.55 294.3 153.569 293.133C166.188 291.806 178.908 291.273 191.583 290.706C206.31 290.038 221.002 288.813 235.729 288.156C244.912 287.747 254.084 286.943 263.256 286.58C280.42 285.9 297.528 283.904 314.726 283.961C316.064 283.961 317.402 283.485 318.74 283.496C324.635 283.53 330.496 281.093 336.426 283.258C342.604 279.471 347.479 274.222 352.309 268.962C355.053 265.98 357.433 262.658 359.961 259.495Z" fill="#604729"/>
<path d="M336.437 283.269C330.519 281.104 324.646 283.541 318.751 283.507C317.413 283.496 316.076 283.984 314.738 283.972C297.539 283.916 280.432 285.911 263.267 286.591C254.096 286.954 244.924 287.759 235.741 288.167C221.014 288.824 206.332 290.049 191.594 290.718C178.919 291.285 166.199 291.817 153.581 293.144C142.561 294.3 132.607 290.774 122.245 288.507C111.429 286.138 100.704 283.371 89.9681 280.718C79.4926 278.134 69.0057 275.605 58.5302 273.1C47.2611 270.402 35.9354 267.874 24.6322 265.243C19.5079 264.053 14.4515 262.545 9.32714 261.389C7.71727 261.026 6.00534 259.881 4.27076 261.173C5.95999 267.647 8.27276 272.839 16.1407 274.664C32.0694 278.36 47.726 283.201 63.5186 287.521C78.1434 291.523 92.791 295.434 107.405 299.459C116.667 302.01 126.02 304.3 135.067 307.463C143.717 310.49 152.254 308.732 160.836 308.234C169.611 307.723 178.364 306.805 187.116 306.046C199.11 305.003 211.094 303.699 223.111 302.985C230.82 302.531 238.484 301.715 246.182 301.148C258.052 300.264 269.899 299.266 281.747 298.189C289.286 297.497 296.882 296.273 304.398 296.5C315.565 296.851 324.646 292.736 333.047 286.115C334.226 285.219 335.315 284.222 336.437 283.269Z" fill="#A6753B"/>
<path d="M94.0494 258.316C105.137 258.747 116.168 260.108 127.256 260.686C136.428 261.162 145.679 261.298 154.748 262.454C160.644 263.203 166.482 263.293 172.355 263.633C174.35 263.747 176.039 263.146 177.468 261.774C172.718 259.575 171.924 255.663 175.246 251.979C176.992 250.04 179.18 250.641 181.221 250.267C178.67 250.063 178.069 246.9 175.575 246.571C167.299 245.46 159.011 244.428 150.758 243.136C146.994 242.546 143.321 241.413 139.602 240.517C133.48 239.553 127.369 238.533 121.236 237.66C118.515 237.275 119.433 236.096 120.397 234.792C125.192 228.307 129.988 221.822 134.784 215.337C135.521 214.26 135.917 212.628 137.731 213.161C139.375 213.648 138.684 215.156 138.888 216.278C139.659 220.28 142.312 223.353 144.942 225.994C148.275 229.339 152.798 231.141 157.435 232.434C168.058 235.393 178.93 236.107 189.871 236.787C198.657 237.331 208.101 236.141 215.118 243.646C216.332 240.88 214.495 238.08 216.445 235.857C216.649 235.88 216.853 235.869 217.046 235.835C217.284 233.545 217.012 231.119 218.712 229.203C218.792 228.092 219.223 227.343 220.492 227.445C219.801 226.867 219.325 226.765 220.311 225.529C225.458 219.124 228.451 212.027 226.422 203.501C223.236 190.192 218.826 177.347 212.296 165.284C211.343 163.538 211.763 162.155 212.375 160.602C211.014 159.105 208.271 159.91 207.387 157.62C203.872 155.931 200.369 154.23 196.854 152.541C195.29 152.598 194.53 152.824 194.904 154.944C195.619 158.901 195.086 162.948 191.979 165.839C186.311 171.1 179.35 173.197 172.094 170.658C165.881 168.481 158.342 166.962 158.444 157.371C158.467 155.727 157.129 153.131 156.721 150.886C155.497 150.886 154.408 151.26 153.275 151.793C147.413 154.57 141.484 157.212 135.577 159.91C135.317 160.216 135.056 160.522 134.795 160.817C134.058 162.574 133.548 164.615 130.906 164.139C128.015 167.234 124.49 169.751 122.46 173.617C122.88 177.324 120.363 178.911 117.608 180.328C113.538 185.271 110.987 191.155 107.711 196.597C107.677 197.583 106.94 197.98 106.214 198.377C106.123 198.842 106.033 199.295 105.931 199.76C100.512 210.36 94.1061 220.428 89.0724 231.243C86.6349 236.481 85.4105 242.048 85.2405 247.761C85.1044 253.679 89.696 255.981 94.0494 258.316Z" fill="#E94327"/>
<path d="M207.409 157.654C208.294 159.944 211.037 159.139 212.398 160.636C214.484 160.613 215.731 162.155 217.227 163.232C222.59 167.098 226.342 172.506 230.628 177.392C232.929 172.018 232.521 166.837 229.471 161.871C228.338 160.024 227.102 158.221 227.113 155.919C226.41 155.863 225.673 155.851 225.469 154.944C224.766 151.192 225.549 147.734 227.295 144.367C228.984 141.091 230.322 137.689 229.369 133.857C228.44 132.395 227.499 130.932 228.587 129.13C226.184 126.93 224.256 124.323 222.476 121.636C218.078 115.004 218.395 111.229 223.769 103.689C222.329 101.309 224.143 99.7101 225.163 97.9301C227 93.2026 225.911 88.4296 225.367 83.668C224.336 83.3279 223.531 82.6931 223.474 81.5593C223.429 80.607 224.302 80.8791 224.868 80.7771C221.626 76.9451 217.465 74.2356 212.76 73.0112C207.625 71.6734 204.156 68.8278 201.548 64.429C197.58 57.7627 192.637 52.1622 184.746 50.0648C183.975 49.8608 183.148 49.8268 182.343 49.7247C182.014 49.9741 181.697 50.2235 181.368 50.4616C181.844 50.9831 183.068 50.0875 183.171 51.3686C164.294 50.8924 148.479 56.6177 138.037 73.3626C137.765 75.1765 136.462 76.0495 134.965 76.7524C134.489 81.4686 133.979 86.1735 133.548 90.9011C132.72 99.8688 128.809 104.381 120.17 106.184C120.227 109.528 117.597 108.213 115.964 108.61C112.96 110.764 109.139 111.353 106.271 113.757C102.314 117.079 99.2532 120.82 100.602 126.511C101.827 128.28 100.319 128.064 99.3439 128.234C105.239 135.785 105.024 139.968 98.9017 147.609C95.682 151.623 91.5099 154.763 88.7097 159.117C89.3219 159.06 90.3876 158.81 90.4669 158.981C91.0564 160.375 90.1721 161.407 89.3445 162.416C86.669 171.905 88.0067 180.589 94.5143 188.23C98.0514 192.38 102.983 194.364 107.745 196.608C111.021 191.178 113.561 185.294 117.642 180.34C118.651 177.664 119.977 175.215 122.494 173.628C124.524 169.762 128.049 167.245 130.94 164.15C131.451 162.121 132.584 160.817 134.829 160.828C135.09 160.522 135.351 160.216 135.611 159.921C135.679 159.128 135.521 158.017 136.405 157.79C140.962 156.622 141.291 153.289 141.427 149.355C141.688 141.374 144.772 135.037 152.526 131.465C158.671 128.642 158.569 128.427 156.846 122.486C151.529 118.7 149.477 111.761 151.993 106.036C153.649 102.272 156.846 100.946 159.737 103.644C162.741 106.444 164.918 107.204 167.593 103.712C170.11 100.968 173.772 100.628 176.946 99.2566C186.787 94.9938 197.138 91.5927 204.258 82.7951C204.496 82.5117 205.244 82.6364 205.754 82.5683C205.845 81.7861 204.405 79.8248 206.4 80.4936C209.348 81.48 212.806 81.9108 214.88 84.677C217.601 88.2936 218.111 99.0639 215.005 102.227C212.432 104.846 212.579 107.612 212.318 110.616C212.046 113.757 211.207 116.738 208.974 119.142L208.962 119.074C208.996 121.092 208.928 123.133 209.099 125.139C209.325 127.917 208.282 130.819 209.915 133.449C212.613 137.769 212.137 142.326 210.266 146.6C208.679 150.194 208.214 153.935 207.409 157.654ZM115.953 155.001C113.561 163.085 108.776 170.601 110.114 179.58C107.586 170.284 112.075 162.382 115.148 154.208C116.497 148.505 115.227 143.358 112.563 138.188C109.683 132.576 111.565 128.019 117.211 124.981C121.757 122.532 126.734 121.953 131.768 121.647C137.811 121.273 140.906 118.292 141.303 112.215C141.473 109.641 141.45 107.057 141.427 104.472C141.371 99.3133 140.996 94.1435 142.141 89.0418C144.42 78.9178 150.44 71.7981 159.861 66.6284C159.487 68.3516 158.456 68.5217 157.741 68.9978C148.264 75.4713 142.799 84.1669 142.867 95.9235C142.901 100.821 143.082 105.719 142.935 110.605C142.686 119.244 138.99 122.894 130.34 123.257C126.236 123.427 122.222 124.028 118.481 125.797C112.88 128.45 111.146 132.61 113.912 138.12C116.69 143.596 117.755 149.072 115.953 155.001ZM183.726 63.4993C176.085 63.0458 168.591 63.7714 161.335 66.2316C168.489 63.0118 175.79 60.7784 183.726 63.4993Z" fill="#0B2D4E"/>
<path d="M255.002 266.683C260.32 267.635 265.557 266.434 270.806 266.014C296.224 263.974 321.642 261.785 347.06 259.722C348.919 259.575 350.495 259.133 351.753 257.749C353.114 251.174 354.52 244.61 355.812 238.023C359.055 221.403 362.274 204.782 365.449 188.151C365.925 185.668 366.809 183.004 364.032 181.133C362.535 181.133 361.05 181.065 359.553 181.145C342.763 182.006 325.984 182.822 309.205 183.763C298.118 184.387 287.053 185.271 275.965 185.861C272.337 186.054 270.806 187.697 270.035 191.167C265.387 211.902 260.376 232.547 255.921 253.317C254.991 257.602 252.157 262.046 255.002 266.683ZM314.658 212.9C318.184 212.945 320.724 215.462 320.814 218.999C320.928 223.239 316.642 228.965 312.584 229.996C308.015 231.164 304.036 228.568 303.797 224.271C303.491 218.693 309.092 212.82 314.658 212.9Z" fill="#0B2D4F"/>
<path d="M230.628 177.392C226.342 172.494 222.59 167.098 217.227 163.232C215.731 162.155 214.484 160.613 212.398 160.636C211.774 162.178 211.366 163.561 212.318 165.318C218.848 177.369 223.259 190.226 226.444 203.535C228.485 212.061 225.481 219.158 220.334 225.563C219.347 226.799 219.823 226.89 220.515 227.479C221.671 229.157 222.828 230.846 223.984 232.524C228.031 236.9 232.079 241.277 236.126 245.664C238.484 245.449 240.514 245.653 240.117 248.872C242.815 248.827 245.525 248.782 248.223 248.736C249.209 246.764 251.635 247.002 253.007 245.63C253.064 245.109 253.109 244.587 253.166 244.066C253.438 242.331 251.93 240.052 254.674 239.066C254.152 234.293 257.372 230.053 256.624 225.257C248.404 210.598 241.126 195.429 232.408 181.043C231.716 179.863 231.217 178.594 230.628 177.392Z" fill="#D53723"/>
<path d="M292.449 87.1599C291.565 72.8751 291.587 59.0665 286.905 46.3916C282.608 34.7597 275.625 24.2729 265.161 16.6544C258.789 12.0061 252.35 7.52799 244.72 5.22655C234.482 2.14286 224.234 1.68937 213.565 3.60534C205.958 4.9658 198.827 7.19921 192.104 10.657C184.145 14.7724 176.652 19.7041 170.688 26.5857C169.94 27.4586 168.398 28.3543 169.521 29.59C170.552 30.7237 171.391 29.0912 172.208 28.615C183.635 21.9941 194.972 15.0445 207.987 12.0742C221.932 8.89978 235.548 10.0335 248.62 16.6204C258.075 21.3819 266.362 27.4586 272.858 35.7801C278.289 42.7297 282.132 50.575 285.034 58.9305C287.71 66.6511 288.175 74.7684 289.887 82.6477C290.204 84.1102 290.692 85.4707 292.449 87.1599Z" fill="#FEFEFE"/>
<path d="M253.166 244.032C253.109 244.553 253.064 245.075 253.007 245.596C253.098 246.911 253.631 248.385 251.783 249.02C251.182 251.786 250.513 254.53 250.003 257.307C249.742 258.724 249.436 259.473 247.667 259.053C245.593 258.554 243.405 258.475 241.273 258.203C232.204 257.047 223.145 255.879 214.075 254.711C216.445 256.933 217.726 260.085 220.39 262.058C225.038 261.547 229.46 263.044 233.983 263.611C241.001 264.495 247.996 265.64 254.991 266.683C252.146 262.046 254.991 257.602 255.909 253.328C260.376 232.558 265.387 211.914 270.024 191.178C270.806 187.709 272.326 186.065 275.953 185.872C287.041 185.283 298.106 184.398 309.194 183.775C325.973 182.834 342.763 182.006 359.542 181.156C361.027 181.077 362.524 181.145 364.02 181.145C361.866 177.335 358.816 175.975 354.293 176.27C327.061 177.993 299.807 179.535 272.552 180.929C268.414 181.145 266.918 183.038 266.124 186.711C263.585 198.377 260.852 209.998 258.177 221.641C257.882 222.922 258.052 224.43 256.624 225.223C257.372 230.03 254.152 234.259 254.674 239.032C254.413 240.766 255.955 243.057 253.166 244.032Z" fill="#4390A9"/>
<path d="M19.7687 64.5083C20.1088 66.515 18.6576 67.8074 17.728 69.2359C9.53122 81.7294 5.1778 95.2546 6.77634 110.322C7.15046 113.813 7.54725 117.453 10.0301 121.149C9.3952 81.3893 32.6023 59.8261 65.4799 44.6003C62.7363 43.8407 60.3329 43.9201 58.0428 44.3055C44.6763 46.5956 32.5796 51.4139 23.4646 62.0481C22.4556 63.2045 21.1178 63.8734 19.7687 64.5083Z" fill="#FEFEFE"/>
<path d="M37.7266 257.092C40.2662 258.418 42.9304 259.099 45.81 258.815C45.9687 257.375 45.9007 255.981 45.0731 254.734C39.3252 254.031 36.6723 251.457 36.831 246.73C36.9897 242.116 39.96 239.655 45.7306 239.361C47.2725 235.336 46.4902 231.13 46.683 227.003C46.4562 226.981 46.2295 226.969 46.0027 226.981C45.9687 228.058 45.776 229.157 45.9234 230.212C46.3655 233.522 45.5606 235.245 41.672 235.563C37.0691 235.937 34.0648 239.236 32.9537 243.533C31.5933 248.895 32.8177 253.747 37.7266 257.092Z" fill="#1993C3"/>
<path d="M89.3218 162.427C90.1608 161.418 91.0451 160.386 90.4442 158.992C90.3762 158.822 89.2991 159.071 88.6869 159.128C78.0074 175.895 86.1474 195.055 105.942 199.783C106.033 199.318 106.123 198.864 106.225 198.4C85.4445 194.874 83.0864 176.598 87.916 163.243C88.0747 162.801 88.0747 161.293 89.3218 162.427Z" fill="#334953"/>
<path d="M134.942 76.7637C136.439 76.0608 137.743 75.1879 138.015 73.3739C136.144 72.4103 137.629 71.3332 138.026 70.4603C139.885 66.3676 142.595 62.8871 145.928 59.8601C152.368 54.0215 160.338 51.72 168.557 49.9855C168.194 49.702 167.831 49.4186 167.469 49.1352C155.213 50.8924 145.055 56.1302 138.366 66.9458C136.53 69.9274 134.92 73.0792 134.942 76.7637Z" fill="#364B57"/>
<path d="M99.3212 128.246C100.285 128.076 101.804 128.291 100.58 126.522C100.489 126.624 100.421 126.76 100.308 126.817C100.217 126.862 100.035 126.851 99.9788 126.783C98.1195 124.618 98.6863 122.248 99.5253 119.947C101.736 113.881 109.037 108.882 115.941 108.621C117.574 108.213 120.204 109.539 120.147 106.195C111.713 107.159 103.992 109.596 99.3212 117.407C97.2578 120.854 96.1922 124.629 99.3212 128.246Z" fill="#314756"/>
<path d="M228.576 129.13C227.487 130.932 228.428 132.395 229.358 133.857C229.471 133.381 229.573 132.905 229.687 132.429C229.936 132.644 230.254 132.826 230.424 133.087C232.147 135.898 232.487 138.97 231.297 141.952C229.539 146.351 227.431 150.614 225.469 154.933C225.673 155.84 226.41 155.851 227.113 155.908C227.895 152.337 229.619 149.151 231.217 145.897C234.528 139.186 233.689 134.322 228.576 129.13Z" fill="#2D434C"/>
<path d="M225.152 97.9301C224.132 99.7214 222.318 101.309 223.757 103.689C230.378 96.3543 230.786 88.0101 224.846 80.7771C224.279 80.8791 223.406 80.607 223.451 81.5593C223.497 82.693 224.302 83.3279 225.345 83.668C228.19 88.0782 228.349 92.7377 226.512 97.5333C226.342 97.9641 226.104 99.5627 225.152 97.9301Z" fill="#374E5F"/>
<path d="M167.48 49.1238C167.843 49.4073 168.205 49.6907 168.568 49.9741C172.842 49.9401 177.116 49.6113 181.357 50.4616C181.685 50.2122 182.003 49.9628 182.332 49.7247C177.434 48.1829 172.457 48.5343 167.48 49.1238Z" fill="#2F4653"/>
<path d="M220.402 262.058C217.737 260.085 216.456 256.933 214.087 254.711C209.767 251.956 215.073 252.534 215.255 251.333C212.817 250.754 210.164 252.036 207.851 250.063C204.371 247.093 200.256 247.263 195.913 247.693C190.925 248.192 186.322 250.607 181.221 250.278C179.18 250.652 176.992 250.04 175.246 251.99C171.935 255.675 172.729 259.586 177.468 261.785C179.565 261.593 181.232 262.67 182.944 263.622C185.665 263.611 188.374 263.599 191.095 263.588C192.025 260.697 194.383 262.443 196.072 262.046C197.399 262.035 198.725 262.035 200.051 262.024C202.795 261.593 204.904 262.307 205.856 265.175C209.087 265.663 212.023 267.103 215.504 267.012C219.291 266.91 221.161 266.094 220.402 262.058Z" fill="#F6A07B"/>
<path d="M56.4669 265.107C59.8227 265.141 63.1898 265.175 66.5456 265.221C68.0535 265.243 69.5499 265.243 70.3889 263.645C72.4636 258.94 70.6383 254.722 68.745 250.516C67.3732 243.193 67.4186 235.857 68.711 228.522C67.668 228.454 67.0898 227.967 67.1692 226.856C66.5796 226.867 65.9787 226.867 65.3892 226.878C65.1965 228.953 63.5866 228.511 62.3509 228.488C59.0064 228.432 55.6846 228.511 52.4196 229.327C52.4196 236.515 52.3855 243.714 52.4196 250.902C52.4422 255.731 51.1498 260.969 56.3195 264.325C56.4669 264.438 56.4216 264.846 56.4669 265.107Z" fill="#0297D6"/>
<path d="M56.4669 265.107C56.4215 264.835 56.4669 264.427 56.3082 264.325C51.1385 260.969 52.4309 255.731 52.4082 250.902C52.3742 243.714 52.3969 236.515 52.4082 229.327C52.3969 228.522 52.3969 227.706 52.3855 226.89C50.4922 226.924 48.5876 226.958 46.6943 226.992C46.5016 231.119 47.2952 235.325 45.742 239.349C45.708 244.485 46.9097 249.666 45.0731 254.711C45.9007 255.97 45.9687 257.364 45.81 258.792C47.0117 264.178 49.1431 265.436 56.4669 265.107Z" fill="#0D84B7"/>
<path d="M68.7449 250.516C70.6382 254.722 72.4635 258.94 70.3888 263.645C72.5089 262.568 72.883 260.742 72.8603 258.543C72.7583 249.745 72.7697 240.937 72.747 232.139C72.7356 226.81 72.7356 226.81 67.1691 226.867C67.0784 227.978 67.6566 228.477 68.7109 228.534C70.1621 228.67 70.3662 229.656 70.3548 230.846C70.3435 236.413 70.3435 241.968 70.3662 247.535C70.3662 248.85 70.0601 249.95 68.7449 250.516Z" fill="#1993C3"/>
<path d="M52.3855 226.901C52.3968 227.706 52.3969 228.522 52.4082 229.339C55.6733 228.522 58.995 228.454 62.3395 228.5C63.5866 228.522 65.1965 228.965 65.3779 226.89C61.0584 226.89 56.7276 226.89 52.3855 226.901Z" fill="#1993C3"/>
<path d="M191.095 263.577C188.374 263.588 185.665 263.599 182.944 263.611C185.052 265.935 188.896 265.924 191.095 263.577Z" fill="#BEA8A6"/>
<path d="M205.867 265.164C204.915 262.296 202.795 261.581 200.063 262.012C201.48 264.019 203.124 265.606 205.867 265.164Z" fill="#B1ABAE"/>
<path d="M196.083 262.035C194.383 262.432 192.025 260.686 191.106 263.577C192.784 263.157 195.131 264.869 196.083 262.035Z" fill="#BEA8A6"/>
<path d="M181.221 250.278C186.311 250.596 190.925 248.181 195.913 247.693C200.256 247.263 204.371 247.104 207.851 250.063C210.164 252.036 212.828 250.754 215.266 251.333C215.685 251.049 216.093 250.777 216.513 250.494C216.502 245.619 216.49 240.744 216.479 235.869C214.529 238.08 216.366 240.88 215.153 243.657C208.135 236.141 198.691 237.343 189.905 236.798C178.964 236.118 168.092 235.404 157.469 232.445C152.832 231.153 148.298 229.35 144.976 226.006C142.346 223.364 139.693 220.292 138.922 216.29C138.706 215.179 139.409 213.659 137.765 213.172C135.94 212.639 135.555 214.283 134.818 215.349C135.589 215.677 136.337 216.199 136.405 217.015C137.006 224.917 139.908 232.513 139.636 240.528C143.355 241.413 147.028 242.558 150.792 243.147C159.034 244.44 167.333 245.471 175.609 246.582C178.057 246.911 178.67 250.074 181.221 250.278Z" fill="#D63722"/>
<path d="M156.834 122.486C158.558 128.427 158.66 128.642 152.515 131.465C144.749 135.037 141.665 141.374 141.416 149.355C141.291 153.289 140.951 156.634 136.394 157.79C135.509 158.017 135.668 159.128 135.6 159.921C141.507 157.235 147.436 154.582 153.297 151.804C154.431 151.271 155.508 150.897 156.744 150.897C158.331 149.117 160.621 149.491 162.616 148.958C163.569 147.881 163.229 146.498 163.523 145.251C163.523 140.92 163.523 136.59 163.512 132.259C163.421 131.76 163.319 131.273 163.229 130.774C161.641 128.824 160.825 126.488 159.952 124.176C158.716 123.983 158.24 122.396 156.834 122.486Z" fill="#062034"/>
<path d="M207.409 157.654C208.214 153.947 208.679 150.194 210.255 146.612C212.125 142.338 212.602 137.78 209.903 133.461C208.271 130.842 209.325 127.928 209.087 125.151C208.917 123.144 208.985 121.103 208.951 119.085C204.949 129.447 200.108 139.163 189.519 144.48C190.12 146.362 190.71 148.256 191.311 150.138C191.549 150.194 191.741 150.33 191.877 150.523C193.691 150.84 195.664 150.772 196.877 152.564C200.392 154.264 203.906 155.953 207.409 157.654Z" fill="#072034"/>
<path d="M139.602 240.54C139.874 232.513 136.972 224.928 136.371 217.027C136.314 216.21 135.555 215.689 134.784 215.36C129.988 221.845 125.193 228.33 120.397 234.814C119.433 236.13 118.515 237.297 121.236 237.683C127.369 238.556 133.48 239.576 139.602 240.54Z" fill="#FFE8C6"/>
<path d="M196.877 152.564C195.664 150.772 193.691 150.84 191.877 150.523C191.866 154.412 192.41 158.357 189.236 161.577C184.973 165.907 175.79 167.687 169.906 165.114C163.659 162.393 162.254 159.672 162.571 150.988C162.594 150.308 162.605 149.639 162.628 148.958C160.632 149.491 158.331 149.106 156.755 150.897C157.152 153.153 158.49 155.738 158.478 157.382C158.376 166.985 165.915 168.492 172.128 170.669C179.384 173.209 186.356 171.111 192.013 165.851C195.131 162.96 195.653 158.912 194.938 154.956C194.553 152.858 195.313 152.62 196.877 152.564Z" fill="#D13A23"/>
<path d="M89.3218 162.427C88.0634 161.305 88.0748 162.801 87.916 163.243C83.0864 176.598 85.4445 194.862 106.225 198.4C106.951 198.003 107.688 197.606 107.722 196.62C102.972 194.375 98.0288 192.38 94.4916 188.242C87.9841 180.6 86.6463 171.905 89.3218 162.427Z" fill="#FFE8C6"/>
<path d="M122.472 173.639C119.943 175.227 118.628 177.675 117.619 180.351C120.374 178.934 122.891 177.347 122.472 173.639Z" fill="#B6483D"/>
<path d="M216.468 235.88C216.479 240.755 216.49 245.63 216.502 250.505C216.717 250.641 216.944 250.664 217.182 250.562C217.273 245.664 217.363 240.755 217.443 235.857L217.069 235.869C216.864 235.892 216.672 235.891 216.468 235.88Z" fill="#F6A07B"/>
<path d="M223.984 232.502C222.828 230.824 221.671 229.135 220.515 227.457C219.245 227.355 218.814 228.103 218.735 229.214C218.837 229.316 218.939 229.418 219.041 229.52C221.263 229.577 221.637 232.683 223.984 232.502Z" fill="#F3DDD4"/>
<path d="M218.735 229.225C217.034 231.141 217.307 233.567 217.068 235.857L217.443 235.846C220.198 234.304 218.146 231.538 219.052 229.531C218.95 229.429 218.848 229.327 218.735 229.225Z" fill="#F3DDD4"/>
<path d="M134.818 160.84C132.562 160.828 131.428 162.132 130.929 164.162C133.571 164.638 134.069 162.597 134.818 160.84Z" fill="#92413D"/>
<path d="M189.519 144.48C200.108 139.163 204.949 129.447 208.951 119.085L208.962 119.153C210.742 109.641 211.989 100.13 208.962 90.6177C208.35 90.3456 207.772 90.0395 207.103 90.5723C195.562 99.8688 181.538 101.728 167.571 103.735C164.906 107.227 162.718 106.456 159.714 103.667C156.823 100.968 153.626 102.284 151.971 106.059C149.465 111.773 151.517 118.722 156.823 122.509C158.229 122.418 158.705 124.006 159.952 124.21C163.818 125.026 163.501 127.928 163.229 130.808C163.319 131.307 163.421 131.794 163.512 132.293C169.963 141.068 178.182 146.079 189.519 144.48Z" fill="#F8A07A"/>
<path d="M167.582 103.723C181.549 101.717 195.573 99.8688 207.114 90.561C207.783 90.0282 208.362 90.3343 208.974 90.6064C208.622 87.636 206.695 85.3006 205.743 82.5683C205.233 82.6364 204.484 82.5003 204.246 82.7951C197.126 91.5927 186.776 94.9938 176.935 99.2566C173.761 100.64 170.099 100.98 167.582 103.723Z" fill="#DF795F"/>
<path d="M205.731 82.5797C206.684 85.3119 208.611 87.6474 208.962 90.6177C211.978 100.13 210.742 109.641 208.962 119.153C211.196 116.75 212.023 113.768 212.307 110.628C212.568 107.623 212.42 104.846 214.994 102.238C218.1 99.0752 217.59 88.3049 214.869 84.6884C212.783 81.9221 209.337 81.4913 206.389 80.505C204.382 79.8248 205.833 81.7974 205.731 82.5797Z" fill="#0A2032"/>
<path d="M115.953 155.001C117.755 149.072 116.69 143.596 113.935 138.109C111.168 132.599 112.914 128.438 118.504 125.785C122.245 124.017 126.258 123.416 130.362 123.246C139.012 122.883 142.708 119.233 142.958 110.594C143.094 105.707 142.924 100.81 142.89 95.9121C142.81 84.1555 148.275 75.4713 157.764 68.9865C158.467 68.499 159.499 68.3402 159.884 66.617C150.463 71.7867 144.443 78.9064 142.164 89.0305C141.019 94.1322 141.393 99.3019 141.45 104.46C141.473 107.045 141.495 109.63 141.325 112.204C140.917 118.28 137.833 121.262 131.791 121.636C126.757 121.942 121.78 122.52 117.234 124.969C111.588 128.007 109.695 132.576 112.586 138.177C115.25 143.347 116.52 148.494 115.17 154.196C115.42 154.468 115.692 154.729 115.953 155.001Z" fill="#6A93B2"/>
<path d="M181.357 50.4616C177.116 49.6113 172.842 49.9401 168.568 49.9741C160.349 51.7087 152.379 54.0101 145.939 59.8487C142.606 62.8757 139.897 66.3562 138.037 70.4489C137.641 71.3219 136.144 72.3989 138.026 73.3626C148.468 56.6177 164.283 50.8811 183.159 51.3686C183.046 50.0875 181.833 50.9831 181.357 50.4616Z" fill="#FFE8C6"/>
<path d="M225.469 154.944C227.431 150.625 229.539 146.362 231.297 141.963C232.487 138.982 232.147 135.909 230.424 133.098C230.254 132.826 229.936 132.656 229.687 132.44C229.573 132.916 229.471 133.393 229.358 133.869C230.322 137.689 228.984 141.102 227.283 144.378C225.549 147.734 224.755 151.192 225.469 154.944Z" fill="#FFE8C6"/>
<path d="M115.93 108.621C109.026 108.882 101.725 113.881 99.5139 119.947C98.675 122.248 98.1081 124.629 99.9674 126.783C100.024 126.851 100.205 126.851 100.296 126.817C100.41 126.76 100.478 126.624 100.568 126.522C99.2191 120.831 102.28 117.101 106.237 113.768C109.105 111.365 112.937 110.764 115.93 108.621Z" fill="#C7DEEB"/>
<path d="M183.726 63.4993C175.79 60.7784 168.489 63.0118 161.335 66.2315C168.591 63.7714 176.085 63.0458 183.726 63.4993Z" fill="#395D7F"/>
<path d="M115.953 155.001C115.681 154.729 115.42 154.468 115.148 154.196C112.087 162.382 107.586 170.272 110.114 179.569C108.776 170.601 113.561 163.085 115.953 155.001Z" fill="#466D8F"/>
<path d="M225.152 97.9301C226.116 99.5627 226.342 97.9642 226.512 97.5333C228.349 92.7377 228.202 88.0895 225.345 83.668C225.889 88.4183 226.988 93.1912 225.152 97.9301Z" fill="#FFE8C6"/>
<path d="M314.658 212.9C309.092 212.82 303.491 218.693 303.797 224.282C304.035 228.568 308.015 231.164 312.584 230.008C316.642 228.976 320.928 223.239 320.814 219.011C320.712 215.451 318.184 212.945 314.658 212.9Z" fill="#4090AB"/>
<path d="M217.171 250.55C216.932 250.652 216.706 250.63 216.49 250.494C216.082 250.777 215.663 251.049 215.243 251.333C215.062 252.534 209.756 251.956 214.075 254.711C223.145 255.879 232.215 257.047 241.273 258.203C243.405 258.475 245.581 258.554 247.667 259.053C249.425 259.473 249.731 258.724 250.003 257.307C250.513 254.53 251.182 251.775 251.783 249.02C250.592 248.918 249.402 248.816 248.223 248.702C245.525 248.748 242.815 248.793 240.117 248.838C239.845 248.918 239.573 248.986 239.289 249.065C231.954 250.006 224.596 250.788 217.171 250.55Z" fill="#8BD4E9"/>
<path d="M217.171 250.55C224.596 250.788 231.943 250.006 239.289 249.077C238.235 247.932 237.181 246.786 236.115 245.641C232.067 241.265 228.02 236.889 223.973 232.502C221.615 232.683 221.252 229.565 219.03 229.52C218.123 231.527 220.175 234.293 217.42 235.835C217.352 240.744 217.261 245.653 217.171 250.55Z" fill="#FFE8C6"/>
<path d="M248.223 248.702C249.413 248.804 250.592 248.907 251.783 249.02C253.619 248.385 253.098 246.911 253.007 245.596C251.635 246.968 249.209 246.73 248.223 248.702Z" fill="#A06C74"/>
<path d="M236.126 245.641C237.181 246.786 238.235 247.932 239.301 249.077C239.573 248.997 239.845 248.929 240.128 248.85C240.514 245.63 238.484 245.426 236.126 245.641Z" fill="#B15850"/>
<path d="M253.166 244.032C255.955 243.057 254.413 240.766 254.674 239.032C251.93 240.018 253.438 242.297 253.166 244.032Z" fill="#7E6E78"/>
<path d="M45.0844 254.734C46.921 249.677 45.7193 244.496 45.7533 239.372C39.9827 239.667 37.0011 242.127 36.8537 246.741C36.6836 251.446 39.3365 254.02 45.0844 254.734Z" fill="#FFE8C6"/>
<path d="M68.745 250.516C70.0601 249.938 70.3775 248.85 70.3662 247.523C70.3435 241.957 70.3435 236.402 70.3548 230.835C70.3548 229.645 70.1508 228.658 68.711 228.522C67.4072 235.857 67.3732 243.193 68.745 250.516Z" fill="#32ACE4"/>
<path d="M162.616 148.97C162.594 149.65 162.582 150.319 162.56 150.999C162.242 159.672 163.659 162.393 169.895 165.125C175.779 167.699 184.962 165.919 189.225 161.588C192.399 158.368 191.866 154.423 191.866 150.534C191.73 150.33 191.537 150.206 191.299 150.149C190.551 150.206 190.404 149.106 189.259 149.48C183.703 151.305 178.341 150.33 173.466 147.371C170.065 145.308 167.094 142.61 164.714 139.084C163.603 141.317 164.929 143.539 163.523 145.285C163.229 146.498 163.569 147.893 162.616 148.97Z" fill="#F8A07A"/>
<path d="M163.523 145.263C164.929 143.528 163.603 141.306 164.714 139.061C167.094 142.587 170.065 145.285 173.466 147.349C178.352 150.319 183.715 151.283 189.259 149.457C190.404 149.083 190.551 150.183 191.299 150.126C190.698 148.244 190.109 146.351 189.508 144.469C178.182 146.068 169.951 141.057 163.501 132.259C163.523 136.601 163.523 140.932 163.523 145.263Z" fill="#E0795C"/>
<path d="M163.229 130.785C163.501 127.905 163.818 125.014 159.952 124.187C160.825 126.5 161.641 128.835 163.229 130.785Z" fill="#D19E8D"/>
</svg>
